<?xml version="1.0" encoding="UTF-8" standalone="no"?>
<!DOCTYPE svg PUBLIC "-//W3C//DTD SVG 1.1//EN" "http://www.w3.org/Graphics/SVG/1.1/DTD/svg11.dtd">
<svg version="1.1" xmlns="http://www.w3.org/2000/svg" xmlns:xlink="http://www.w3.org/1999/xlink" preserveAspectRatio="xMidYMid meet" viewBox="645.6537639007698 280.5455517536356 330.5252352437981 328.5260906757912"><defs><path d="M892.08 572.42C893.95 572.42 894.48 571.75 893.95 569.76C893.55 568.29 893.01 567.09 892.75 567.09C892.48 567.09 891.68 568.29 890.88 569.76C889.68 572.02 889.82 572.42 892.08 572.42Z" id="g3JcgXiGgP"></path><path d="M859.03 572.42C861.29 572.42 861.43 572.02 860.23 569.76C859.43 568.29 858.63 567.09 858.36 567.09C858.1 567.09 857.56 568.29 857.16 569.76C856.63 571.75 857.16 572.42 859.03 572.42Z" id="bH8jWA8Qv"></path><path d="M819.98 577.49C822.11 577.22 823.58 576.29 823.58 575.09C823.58 573.89 822.11 572.95 819.98 572.69C816.91 572.29 816.25 572.82 816.25 575.09C816.25 577.35 816.91 577.88 819.98 577.49Z" id="a1dwEkSU2"></path><path d="M819.58 568.42C821.71 568.42 822.91 567.62 822.91 566.42C822.91 565.22 821.71 564.42 819.58 564.42C817.45 564.42 816.25 565.22 816.25 566.42C816.25 567.62 817.45 568.42 819.58 568.42Z" id="a1pkj8aj55"></path><path d="M729.48 572.42C731.35 572.42 731.88 571.75 731.35 569.76C730.95 568.29 730.42 567.09 730.15 567.09C729.88 567.09 729.08 568.29 728.29 569.76C727.09 572.02 727.22 572.42 729.48 572.42Z" id="beoBrvABj"></path><path d="M660.31 595.08L660.31 293.87L961.52 293.87L961.52 595.08L660.31 595.08ZM727.55 563.21L726.45 564.99L725.28 567.49L724.02 570.69L723.17 573.15L722.54 575.32L722.13 577.16L721.93 578.66L721.94 579.77L722.15 580.47L722.56 580.72L723.17 580.51L723.97 579.8L724.95 578.55L725.68 577.83L726.62 577.26L727.7 576.84L728.88 576.59L730.08 576.49L731.26 576.55L732.34 576.77L733.27 577.15L733.98 577.7L734.42 578.42L734.74 578.92L735.19 579.38L735.75 579.77L736.36 580.1L736.98 580.33L737.58 580.47L738.12 580.5L738.55 580.39L738.84 580.15L738.95 579.75L738.9 579.52L738.77 579.09L738.55 578.47L738.26 577.68L737.91 576.74L737.51 575.66L737.05 574.48L736.56 573.2L736.03 571.84L735.48 570.42L734.15 567.29L732.92 564.86L731.78 563.12L730.7 562.09L729.65 561.76L728.61 562.13L727.55 563.21ZM819.05 580.15L821.15 579.97L822.98 579.66L824.53 579.23L825.81 578.67L826.81 578L827.53 577.21L827.97 576.31L828.12 575.3L827.99 574.18L827.58 572.95L827.42 572.47L827.26 571.92L827.11 571.3L826.96 570.64L826.83 569.94L826.7 569.22L826.59 568.5L826.5 567.78L826.43 567.08L826.38 566.42L826.33 565.37L826.23 564.52L826.05 563.84L825.75 563.32L825.29 562.92L824.64 562.63L823.75 562.42L822.59 562.27L821.13 562.14L819.31 562.03L812.25 561.63L812.25 580.55L819.05 580.15ZM890.05 563.18L888.93 564.98L887.75 567.48L886.48 570.69L885.89 572.34L885.38 573.85L884.96 575.21L884.64 576.43L884.4 577.49L884.26 578.38L884.21 579.12L884.25 579.68L884.39 580.07L884.62 580.28L884.87 580.33L885.15 580.32L885.45 580.25L885.77 580.13L886.08 579.97L886.4 579.76L886.72 579.5L887.02 579.22L887.3 578.9L887.55 578.55L888.28 577.83L889.21 577.26L890.3 576.84L891.48 576.59L892.68 576.49L893.85 576.55L894.94 576.77L895.86 577.15L896.58 577.7L897.01 578.42L897.33 578.92L897.79 579.38L898.34 579.77L898.95 580.1L899.58 580.33L900.18 580.47L900.72 580.5L901.15 580.39L901.44 580.15L901.54 579.75L901.5 579.52L901.36 579.09L901.15 578.47L900.86 577.68L900.51 576.74L900.1 575.66L899.65 574.48L899.16 573.2L898.63 571.84L898.08 570.42L896.74 567.26L895.5 564.81L894.35 563.07L893.25 562.03L892.18 561.71L891.12 562.09L890.05 563.18ZM917.6 561.97L917.28 562.24L916.99 562.62L916.74 563.11L916.51 563.72L916.32 564.44L916.16 565.29L916.03 566.26L915.94 567.36L915.54 572.95L911.81 567.36L910.23 565.09L908.87 563.39L907.7 562.28L906.71 561.76L905.91 561.83L905.27 562.48L904.79 563.73L904.46 565.58L904.27 568.03L904.21 571.09L904.22 573.16L904.26 574.92L904.34 576.39L904.45 577.6L904.61 578.55L904.81 579.28L905.07 579.81L905.39 580.16L905.76 580.36L906.21 580.42L906.62 580.37L906.98 580.23L907.29 579.99L907.55 579.63L907.76 579.15L907.93 578.55L908.05 577.81L908.14 576.92L908.19 575.88L908.21 574.69L908.21 569.09L911.94 574.69L912.56 575.62L913.2 576.51L913.86 577.33L914.53 578.09L915.19 578.75L915.83 579.32L916.43 579.78L916.99 580.13L917.5 580.34L917.94 580.42L918.49 580.37L918.94 580.21L919.31 579.91L919.6 579.44L919.82 578.75L919.98 577.83L920.09 576.63L920.16 575.13L920.19 573.29L920.2 571.09L920.19 569.08L920.15 567.35L920.08 565.9L919.97 564.69L919.82 563.72L919.63 562.97L919.39 562.41L919.09 562.04L918.75 561.83L918.34 561.76L917.95 561.81L917.6 561.97ZM844.23 561.9L843.94 562.08L843.68 562.32L843.45 562.62L843.26 563L843.11 563.43L843 563.93L842.93 564.48L842.9 565.09L842.88 565.83L842.81 566.46L842.69 566.99L842.5 567.41L842.24 567.76L841.9 568.02L841.47 568.21L840.94 568.33L840.31 568.4L839.57 568.42L838.83 568.4L838.2 568.33L837.68 568.21L837.25 568.02L836.91 567.76L836.64 567.41L836.45 566.99L836.33 566.46L836.26 565.83L836.24 565.09L836.22 564.48L836.15 563.93L836.03 563.43L835.88 563L835.69 562.62L835.46 562.32L835.2 562.08L834.91 561.9L834.59 561.79L834.24 561.76L833.8 561.82L833.42 562.01L833.1 562.36L832.85 562.89L832.64 563.62L832.48 564.58L832.37 565.78L832.29 567.25L832.25 569.01L832.24 571.09L832.25 573.16L832.29 574.92L832.37 576.39L832.48 577.6L832.64 578.55L832.85 579.28L833.1 579.81L833.42 580.16L833.8 580.36L834.24 580.42L834.62 580.38L834.96 580.26L835.26 580.06L835.52 579.78L835.74 579.42L835.92 578.98L836.06 578.46L836.16 577.86L836.22 577.18L836.24 576.42L836.26 575.5L836.32 574.72L836.43 574.09L836.61 573.57L836.86 573.17L837.19 572.87L837.62 572.65L838.15 572.52L838.8 572.44L839.57 572.42L840.34 572.44L840.99 572.52L841.52 572.65L841.95 572.87L842.29 573.17L842.54 573.57L842.71 574.09L842.82 574.72L842.88 575.5L842.9 576.42L842.92 577.18L842.98 577.86L843.08 578.46L843.22 578.98L843.4 579.42L843.62 579.78L843.88 580.06L844.18 580.26L844.52 580.38L844.9 580.42L845.35 580.36L845.72 580.16L846.04 579.81L846.3 579.28L846.5 578.55L846.66 577.6L846.77 576.39L846.85 574.92L846.89 573.16L846.9 571.09L846.89 569.01L846.85 567.25L846.77 565.78L846.66 564.58L846.5 563.62L846.3 562.89L846.04 562.36L845.72 562.01L845.35 561.82L844.9 561.76L844.55 561.79L844.23 561.9ZM798.77 562.01L798.45 562.36L798.19 562.89L797.99 563.62L797.83 564.58L797.72 565.78L797.64 567.25L797.6 569.01L797.59 571.09L797.6 573.16L797.64 574.92L797.72 576.39L797.83 577.6L797.99 578.55L798.19 579.28L798.45 579.81L798.77 580.16L799.14 580.36L799.59 580.42L800.03 580.36L800.41 580.16L800.73 579.81L800.98 579.28L801.19 578.55L801.34 577.6L801.46 576.39L801.53 574.92L801.57 573.16L801.59 571.09L801.57 569.01L801.53 567.25L801.46 565.78L801.34 564.58L801.19 563.62L800.98 562.89L800.73 562.36L800.41 562.01L800.03 561.82L799.59 561.76L799.14 561.82L798.77 562.01ZM765.3 561.82L764.26 561.9L763.29 562L762.44 562.13L761.7 562.28L761.1 562.45L760.65 562.65L760.37 562.86L760.27 563.09L760.31 563.29L760.41 563.49L760.57 563.67L760.79 563.85L761.05 564.01L761.37 564.15L761.71 564.26L762.1 564.35L762.51 564.4L762.94 564.42L763.59 564.46L764.14 564.58L764.57 564.82L764.91 565.2L765.17 565.77L765.36 566.55L765.48 567.58L765.56 568.88L765.59 570.48L765.6 572.42L765.62 574.17L765.66 575.66L765.73 576.91L765.85 577.94L766 578.77L766.21 579.41L766.46 579.87L766.78 580.19L767.16 580.36L767.6 580.42L768.05 580.36L768.42 580.19L768.74 579.87L769 579.41L769.2 578.77L769.36 577.94L769.47 576.91L769.55 575.66L769.59 574.17L769.6 572.42L769.61 570.48L769.65 568.88L769.72 567.58L769.85 566.55L770.03 565.77L770.29 565.2L770.63 564.82L771.07 564.58L771.61 564.46L772.27 564.42L772.7 564.4L773.11 564.35L773.49 564.26L773.84 564.15L774.15 564.01L774.42 563.85L774.63 563.67L774.8 563.49L774.9 563.29L774.93 563.09L774.83 562.86L774.55 562.65L774.1 562.45L773.5 562.28L772.77 562.13L771.91 562L770.95 561.9L769.9 561.82L768.78 561.77L767.6 561.76L766.42 561.77L765.3 561.82ZM709.05 561.09L707.8 561.59L706.78 562.08L705.97 562.56L705.36 563.07L704.93 563.63L704.65 564.25L704.51 564.95L704.49 565.76L704.56 566.69L704.67 567.52L704.85 568.24L705.09 568.88L705.42 569.44L705.84 569.94L706.37 570.38L707 570.79L707.74 571.17L708.62 571.53L709.63 571.89L710.96 572.41L712.09 573.01L712.99 573.65L713.67 574.32L714.09 574.99L714.26 575.63L714.16 576.23L713.79 576.75L713.12 577.18L712.16 577.49L711.78 577.53L711.36 577.52L710.91 577.46L710.45 577.34L709.98 577.17L709.51 576.96L709.06 576.71L708.63 576.42L708.24 576.1L707.89 575.75L707.21 575.13L706.51 574.62L705.83 574.23L705.18 573.95L704.58 573.8L704.05 573.78L703.6 573.87L703.26 574.1L703.04 574.46L702.96 574.95L703.09 575.75L703.45 576.54L704.02 577.31L704.78 578.03L705.68 578.68L706.7 579.26L707.83 579.74L709.02 580.1L710.25 580.34L711.49 580.42L713.9 580.22L715.84 579.65L717.31 578.78L718.29 577.67L718.77 576.39L718.75 574.98L718.2 573.51L717.13 572.04L715.52 570.64L713.36 569.36L711.85 568.57L710.61 567.82L709.65 567.11L708.96 566.47L708.56 565.89L708.45 565.39L708.62 564.99L709.1 564.68L709.87 564.49L710.96 564.42L711.39 564.44L711.8 564.49L712.18 564.56L712.53 564.66L712.84 564.79L713.11 564.94L713.33 565.12L713.49 565.31L713.59 565.53L713.62 565.76L713.65 565.96L713.73 566.15L713.85 566.34L714.02 566.51L714.22 566.67L714.46 566.81L714.72 566.93L715.01 567.01L715.31 567.07L715.62 567.09L716.49 566.98L717.11 566.66L717.48 566.19L717.62 565.6L717.54 564.92L717.25 564.21L716.75 563.5L716.06 562.82L715.2 562.23L714.16 561.76L713.61 561.53L713.08 561.31L712.58 561.12L712.12 560.95L711.71 560.81L711.35 560.69L711.04 560.61L710.81 560.56L710.64 560.54L710.56 560.56L709.05 561.09ZM755 561.97L754.68 562.24L754.4 562.62L754.14 563.11L753.92 563.72L753.72 564.44L753.56 565.29L753.44 566.26L753.34 567.36L752.94 572.95L749.21 567.36L747.64 565.09L746.27 563.39L745.1 562.28L744.12 561.76L743.31 561.83L742.67 562.48L742.2 563.73L741.87 565.58L741.67 568.03L741.61 571.09L741.63 573.1L741.67 574.82L741.74 576.28L741.85 577.48L742 578.45L742.19 579.21L742.43 579.76L742.72 580.14L743.07 580.35L743.48 580.42L743.86 580.36L744.21 580.19L744.53 579.91L744.82 579.51L745.08 579L745.3 578.37L745.49 577.63L745.65 576.77L745.78 575.79L745.88 574.69L746.28 569.09L749.48 574.69L750.08 575.69L750.7 576.61L751.32 577.45L751.93 578.2L752.54 578.85L753.13 579.4L753.7 579.83L754.24 580.15L754.74 580.35L755.21 580.42L755.79 580.38L756.28 580.23L756.67 579.94L756.97 579.47L757.21 578.8L757.38 577.88L757.49 576.69L757.56 575.18L757.6 573.32L757.61 571.09L757.59 569.08L757.55 567.35L757.48 565.9L757.37 564.69L757.22 563.72L757.03 562.97L756.79 562.41L756.5 562.04L756.15 561.83L755.74 561.76L755.36 561.81L755 561.97ZM790.92 561.9L790.63 562.08L790.37 562.32L790.14 562.62L789.95 563L789.8 563.43L789.68 563.93L789.62 564.48L789.59 565.09L789.57 565.86L789.5 566.51L789.36 567.04L789.14 567.47L788.84 567.81L788.44 568.06L787.93 568.23L787.29 568.34L786.52 568.4L785.59 568.42L784.67 568.4L783.9 568.34L783.26 568.23L782.75 568.06L782.35 567.81L782.04 567.47L781.83 567.04L781.69 566.51L781.62 565.86L781.6 565.09L781.57 564.48L781.5 563.93L781.39 563.43L781.24 563L781.05 562.62L780.82 562.32L780.56 562.08L780.26 561.9L779.94 561.79L779.6 561.76L779.15 561.82L778.77 562.01L778.46 562.36L778.2 562.89L778 563.62L777.84 564.58L777.73 565.78L777.65 567.25L777.61 569.01L777.6 571.09L777.61 573.16L777.65 574.92L777.73 576.39L777.84 577.6L778 578.55L778.2 579.28L778.46 579.81L778.77 580.16L779.15 580.36L779.6 580.42L779.98 580.38L780.32 580.26L780.62 580.06L780.88 579.78L781.1 579.42L781.28 578.98L781.42 578.46L781.52 577.86L781.58 577.18L781.6 576.42L781.61 575.43L781.67 574.62L781.78 573.97L781.97 573.46L782.25 573.07L782.63 572.79L783.14 572.6L783.8 572.49L784.61 572.44L785.59 572.42L786.58 572.44L787.39 572.49L788.04 572.6L788.56 572.79L788.94 573.07L789.22 573.46L789.41 573.97L789.52 574.62L789.58 575.43L789.59 576.42L789.61 577.18L789.67 577.86L789.77 578.46L789.91 578.98L790.09 579.42L790.31 579.78L790.57 580.06L790.87 580.26L791.21 580.38L791.59 580.42L792.04 580.36L792.41 580.16L792.73 579.81L792.99 579.28L793.19 578.55L793.35 577.6L793.46 576.39L793.54 574.92L793.58 573.16L793.59 571.09L793.58 569.01L793.54 567.25L793.46 565.78L793.35 564.58L793.19 563.62L792.99 562.89L792.73 562.36L792.41 562.01L792.04 561.82L791.59 561.76L791.24 561.79L790.92 561.9ZM857.93 562.03L857.45 562.37L856.96 562.85L856.46 563.47L855.96 564.23L855.45 565.13L854.92 566.18L854.38 567.36L853.83 568.69L853.39 569.86L852.95 571.03L852.51 572.18L852.08 573.3L851.68 574.35L851.31 575.33L850.97 576.2L850.67 576.96L850.42 577.57L850.23 578.02L850.06 578.51L849.96 578.93L849.92 579.3L849.94 579.61L850.02 579.87L850.16 580.07L850.36 580.23L850.61 580.33L850.93 580.4L851.3 580.42L851.62 580.39L851.95 580.31L852.27 580.19L852.59 580.02L852.9 579.82L853.19 579.58L853.46 579.32L853.7 579.04L853.92 578.73L854.1 578.42L854.26 578.07L854.52 577.75L854.85 577.46L855.26 577.2L855.73 576.97L856.26 576.78L856.83 576.62L857.45 576.51L858.09 576.44L858.76 576.42L859.4 576.44L860.02 576.51L860.61 576.62L861.17 576.78L861.69 576.97L862.17 577.2L862.59 577.46L862.94 577.75L863.22 578.07L863.43 578.42L863.57 578.73L863.77 579.04L864.01 579.32L864.29 579.58L864.59 579.82L864.92 580.02L865.27 580.19L865.63 580.31L866 580.39L866.36 580.42L866.77 580.4L867.11 580.33L867.39 580.23L867.61 580.07L867.76 579.87L867.85 579.61L867.87 579.3L867.83 578.93L867.73 578.51L867.56 578.02L867.37 577.57L867.12 576.96L866.82 576.2L866.48 575.33L866.11 574.35L865.71 573.3L865.28 572.18L864.85 571.03L864.4 569.86L863.96 568.69L863.41 567.36L862.87 566.18L862.35 565.13L861.83 564.23L861.33 563.47L860.83 562.85L860.34 562.37L859.86 562.03L859.38 561.83L858.9 561.76L858.42 561.83L857.93 562.03ZM881.66 562L881.28 562.29L880.9 562.69L880.52 563.17L880.15 563.74L879.79 564.39L879.45 565.1L879.15 565.87L878.89 566.69L878.21 568.75L877.59 570.37L877.02 571.57L876.49 572.33L875.99 572.67L875.49 572.59L874.99 572.1L874.46 571.19L873.9 569.87L873.29 568.16L872.95 567.21L872.57 566.32L872.15 565.47L871.72 564.69L871.27 563.99L870.82 563.38L870.38 562.86L869.95 562.46L869.54 562.18L869.16 562.03L868.66 561.96L868.28 562.02L868.03 562.23L867.91 562.64L867.93 563.26L868.07 564.13L868.36 565.27L868.79 566.73L869.37 568.52L870.09 570.69L871.19 573.74L872.24 576.16L873.27 577.97L874.27 579.18L875.26 579.77L876.23 579.76L877.21 579.15L878.19 577.94L879.2 576.14L880.22 573.75L881.34 570.86L882.25 568.46L882.93 566.52L883.41 564.98L883.69 563.81L883.77 562.95L883.67 562.36L883.4 562L882.95 561.81L882.35 561.76L882.02 561.82L881.66 562ZM867.53 439.69L869.59 441.64L871.59 443.77L873.53 446.08L875.39 448.56L877.16 451.18L878.84 453.93L880.4 456.81L881.84 459.79L883.15 462.87L883.85 464.75L884.43 466.53L884.9 468.29L885.28 470.12L885.57 472.1L885.78 474.31L885.93 476.83L886.02 479.75L886.07 483.16L886.08 487.12L886.07 491.22L886.02 494.71L885.92 497.69L885.75 500.25L885.5 502.5L885.16 504.54L884.72 506.47L884.16 508.38L883.46 510.39L882.62 512.58L881.23 515.97L879.86 519.07L878.47 521.9L877.03 524.52L875.51 526.97L873.88 529.3L872.11 531.53L870.18 533.73L868.05 535.93L865.69 538.17L858.76 544.7L864.49 543.77L873.94 541.67L882.66 538.68L890.59 534.87L897.69 530.27L903.91 524.94L909.19 518.93L913.49 512.29L916.74 505.08L918.91 497.34L919.94 489.12L920.03 486.7L920.07 484.54L920.05 482.58L919.96 480.79L919.8 479.13L919.56 477.54L919.23 475.99L918.81 474.43L918.3 472.83L917.67 471.13L915.66 466.6L913.25 462.29L910.44 458.23L907.26 454.42L903.73 450.89L899.85 447.65L895.65 444.72L891.15 442.11L886.35 439.85L881.29 437.94L879.83 437.5L878.29 437.05L876.68 436.6L875.04 436.16L873.41 435.75L871.8 435.36L870.24 435.02L868.78 434.73L867.43 434.5L866.23 434.35L859.56 433.41L865.43 437.94L867.53 439.69ZM741.88 311.63L740.8 311.96L739.39 312.44L737.67 313.08L735.62 313.86L732.42 315.24L729.32 316.84L726.3 318.65L723.4 320.66L720.62 322.85L717.98 325.22L715.48 327.74L713.14 330.41L710.97 333.2L708.99 336.12L707.21 339.14L705.64 342.26L704.3 345.45L703.78 346.85L703.33 348.17L702.94 349.44L702.61 350.67L702.35 351.89L702.13 353.12L701.97 354.38L701.86 355.7L701.79 357.09L701.76 358.58L701.77 360.18L701.82 361.93L701.9 363.84L702.49 369.77L703.64 375.32L705.44 380.55L707.99 385.56L711.37 390.42L715.67 395.21L720.98 400.02L727.38 404.93L734.98 410.01L743.86 415.34L754.11 421.01L765.81 427.1L779.06 433.68L787.8 438.01L795.61 442L802.55 445.69L808.69 449.12L814.09 452.35L818.82 455.43L822.96 458.39L826.55 461.29L829.67 464.17L832.39 467.08L834.77 470.07L836.87 473.18L838.77 476.46L839.95 478.81L840.98 481.13L841.85 483.43L842.57 485.71L843.14 487.97L843.55 490.24L843.81 492.51L843.92 494.79L843.88 497.08L843.7 499.4L843.36 501.76L842.87 504.15L842.24 506.58L841.11 510.16L839.83 513.64L838.4 517L836.83 520.23L835.14 523.32L833.33 526.24L831.42 528.99L829.41 531.56L827.31 533.92L825.14 536.07L822.89 538L820.59 539.68L818.25 541.1L814.25 543.37L820.65 542.43L825.3 541.64L829.79 540.55L834.11 539.18L838.24 537.53L842.17 535.61L845.9 533.42L849.41 530.96L852.7 528.26L855.76 525.3L858.56 522.1L861.12 518.67L863.41 515L865.43 511.11L866.09 509.67L866.66 508.34L867.15 507.06L867.56 505.81L867.91 504.53L868.19 503.19L868.41 501.74L868.59 500.15L868.71 498.36L868.8 496.34L868.85 494.04L868.88 491.43L868.89 488.46L868.82 484.5L868.65 480.85L868.37 477.47L867.98 474.34L867.46 471.4L866.81 468.64L866.01 466.02L865.05 463.5L863.93 461.05L862.63 458.64L861.14 456.22L859.46 453.78L857.56 451.27L855.26 448.53L852.75 445.87L849.94 443.25L846.77 440.63L843.17 437.97L839.07 435.21L834.39 432.31L829.07 429.24L823.02 425.95L816.19 422.39L808.5 418.53L799.88 414.31L790.26 409.69L779.31 404.36L769.57 399.4L760.94 394.76L753.38 390.38L746.81 386.2L741.16 382.17L736.37 378.22L732.36 374.3L729.08 370.36L726.44 366.33L724.39 362.17L722.85 357.8L721.75 353.18L721.29 349.9L721.13 346.64L721.27 343.41L721.69 340.24L722.4 337.13L723.39 334.1L724.65 331.17L726.18 328.34L727.97 325.63L730.01 323.05L732.3 320.62L734.84 318.36L737.61 316.26L739.31 315.04L740.71 313.99L741.8 313.13L742.59 312.45L743.07 311.95L743.24 311.62L743.1 311.46L742.65 311.46L741.88 311.63ZM708.74 484.97L708.6 487.62L708.51 491.45L708.46 496.59L708.43 503.19L708.43 511.38L708.4 516.51L708.39 521.38L708.41 525.93L708.44 530.09L708.49 533.79L708.56 536.96L708.64 539.55L708.74 541.48L708.84 542.68L708.96 543.1L709.15 543.03L709.47 542.83L709.91 542.5L710.45 542.07L711.09 541.53L711.81 540.91L712.59 540.21L713.43 539.45L714.31 538.63L715.22 537.77L717.03 536.12L718.84 534.61L720.66 533.24L722.47 532.03L724.27 530.97L726.05 530.07L727.8 529.34L729.52 528.77L731.19 528.38L732.82 528.17L733.37 528.13L733.89 528.07L734.39 528L734.84 527.92L735.25 527.84L735.6 527.76L735.89 527.68L736.1 527.61L736.24 527.55L736.28 527.51L736.18 527.3L735.9 526.86L735.45 526.21L734.85 525.36L734.12 524.34L733.26 523.17L732.3 521.87L731.25 520.45L730.13 518.95L728.95 517.38L727.72 515.72L726.43 513.91L725.11 511.98L723.79 509.97L722.49 507.91L721.24 505.86L720.06 503.85L718.98 501.92L718.03 500.1L717.22 498.45L716.45 496.9L715.67 495.3L714.89 493.67L714.13 492.07L713.39 490.51L712.69 489.02L712.05 487.64L711.47 486.4L710.97 485.33L710.56 484.46L710.01 483.33L709.57 482.68L709.22 482.64L708.95 483.36L708.74 484.97ZM768.25 489L768.21 496.15L768.13 502.9L768.03 509.14L767.9 514.8L767.75 519.77L767.58 523.96L767.38 527.29L767.17 529.66L766.94 530.97L766.69 531.76L766.36 532.61L765.95 533.5L765.49 534.41L764.97 535.32L764.41 536.22L763.82 537.09L763.22 537.92L762.61 538.68L762 539.37L758.41 543.1L805.59 543.1L801.32 539.23L796.92 535.37L796.12 450.34L782.26 443.41L768.27 436.48L768.27 481.53L768.25 489ZM847.41 313.09L847.71 313.52L848.44 314.14L849.57 314.93L852.62 317.15L855.42 319.41L857.96 321.75L860.29 324.18L862.41 326.74L864.35 329.45L866.14 332.33L867.79 335.41L869.32 338.71L870.76 342.25L872.81 349.22L874.03 356.53L874.45 364.06L874.08 371.69L872.94 379.29L871.06 386.74L868.47 393.92L865.19 400.71L861.23 406.99L856.63 412.62L850.23 419.55L855.56 418.75L856.57 418.53L857.81 418.18L859.24 417.72L860.84 417.16L862.56 416.52L864.38 415.81L866.27 415.03L868.18 414.22L870.09 413.36L871.96 412.49L880.41 407.63L887.81 402.03L894.12 395.79L899.26 389.03L903.19 381.87L905.86 374.43L907.2 366.83L907.17 359.19L905.7 351.62L902.74 344.25L900.49 340.47L897.67 336.81L894.33 333.31L890.49 329.99L886.2 326.86L881.49 323.96L876.39 321.3L870.95 318.92L865.19 316.83L859.16 315.06L855.83 314.24L853.09 313.59L850.91 313.13L849.28 312.85L848.17 312.75L847.55 312.83L847.41 313.09ZM761.47 313.33L762.15 313.94L762.83 314.65L763.5 315.44L764.14 316.28L764.75 317.16L765.32 318.07L765.83 318.99L766.28 319.89L766.65 320.77L766.94 321.59L767.13 322.83L767.33 324.82L767.52 327.49L767.69 330.76L767.85 334.56L767.99 338.81L768.11 343.45L768.19 348.39L768.25 353.57L768.27 358.91L768.27 391.3L782 397.83L795.59 404.23L796.26 361.44L796.38 354.5L796.51 347.89L796.64 341.71L796.77 336.05L796.89 330.99L797 326.64L797.11 323.09L797.2 320.42L797.27 318.74L797.32 318.13L797.39 318.04L797.54 317.87L797.77 317.62L798.09 317.3L798.49 316.9L798.97 316.42L799.53 315.86L800.18 315.23L800.91 314.52L801.72 313.73L805.85 309.87L757.34 309.87L761.47 313.33Z" id="bIalaB15q"></path><path d="M975.51 609.07L646.32 609.07L645.92 444.74L645.65 280.55L976.18 280.55L975.91 444.74L975.51 609.07ZM657.65 597.74L964.18 597.74L964.18 291.21L657.65 291.21L657.65 597.74Z" id="a3P48AYpsM"></path></defs><g visibility="inherit"><g visibility="inherit"><use xlink:href="#g3JcgXiGgP" opacity="1" fill="#000000" fill-opacity="1"></use><g><use xlink:href="#g3JcgXiGgP" opacity="1" fill-opacity="0" stroke="#000000" stroke-width="1" stroke-opacity="0"></use></g></g><g visibility="inherit"><use xlink:href="#bH8jWA8Qv" opacity="1" fill="#000000" fill-opacity="1"></use><g><use xlink:href="#bH8jWA8Qv" opacity="1" fill-opacity="0" stroke="#000000" stroke-width="1" stroke-opacity="0"></use></g></g><g visibility="inherit"><use xlink:href="#a1dwEkSU2" opacity="1" fill="#000000" fill-opacity="1"></use><g><use xlink:href="#a1dwEkSU2" opacity="1" fill-opacity="0" stroke="#000000" stroke-width="1" stroke-opacity="0"></use></g></g><g visibility="inherit"><use xlink:href="#a1pkj8aj55" opacity="1" fill="#000000" fill-opacity="1"></use><g><use xlink:href="#a1pkj8aj55" opacity="1" fill-opacity="0" stroke="#000000" stroke-width="1" stroke-opacity="0"></use></g></g><g visibility="inherit"><use xlink:href="#beoBrvABj" opacity="1" fill="#000000" fill-opacity="1"></use><g><use xlink:href="#beoBrvABj" opacity="1" fill-opacity="0" stroke="#000000" stroke-width="1" stroke-opacity="0"></use></g></g><g visibility="inherit"><use xlink:href="#bIalaB15q" opacity="1" fill="#000000" fill-opacity="1"></use><g><use xlink:href="#bIalaB15q" opacity="1" fill-opacity="0" stroke="#000000" stroke-width="1" stroke-opacity="0"></use></g></g><g visibility="inherit"><use xlink:href="#a3P48AYpsM" opacity="1" fill="#000000" fill-opacity="1"></use><g><use xlink:href="#a3P48AYpsM" opacity="1" fill-opacity="0" stroke="#000000" stroke-width="1" stroke-opacity="0"></use></g></g></g></svg>