<?xml version="1.0" encoding="UTF-8" standalone="no"?>
<!DOCTYPE svg PUBLIC "-//W3C//DTD SVG 1.1//EN" "http://www.w3.org/Graphics/SVG/1.1/DTD/svg11.dtd">
<svg version="1.1" xmlns="http://www.w3.org/2000/svg" xmlns:xlink="http://www.w3.org/1999/xlink" preserveAspectRatio="xMidYMid meet" viewBox="115.21407185628742 723.6031893989037 1398.992718183704 158.2019318091318"><defs><path d="M565.69 863.23C565.69 867.63 567.02 868.43 576.35 870.43C581.15 871.36 583.68 872.56 583.68 873.76C583.68 876.82 576.08 876.82 572.35 873.63C570.62 872.16 568.35 871.23 567.29 871.63C566.35 872.03 565.15 872.29 564.89 872.29C563.02 872.29 564.89 876.56 567.82 878.82C570.49 880.96 573.28 881.62 579.02 881.62C588.08 881.62 592.74 878.82 592.74 873.23C592.74 868.03 590.21 865.9 583.28 864.96C573.15 863.5 571.95 862.96 573.82 860.83C575.82 858.43 581.01 858.43 583.55 860.96C585.68 863.1 592.34 863.76 592.34 861.76C592.34 861.1 591.28 859.23 589.94 857.63C588.08 855.23 585.81 854.43 580.22 854.03C576.08 853.77 571.82 854.3 570.35 855.1C566.75 857.37 565.69 858.96 565.69 863.23Z" id="i3Qu8WX7Nm"></path><path d="M1106.79 881.62C1113.19 881.62 1116.74 881.62 1117.45 881.62C1127.98 881.62 1128.11 881.62 1128.11 878.29C1128.11 875.22 1127.71 874.96 1121.45 874.96C1121.01 874.96 1118.84 874.96 1114.92 874.96C1114.68 868.72 1114.55 865.26 1114.52 864.56C1114.12 854.43 1114.12 854.3 1110.52 853.9C1110.27 853.87 1109.03 853.74 1106.79 853.5L1106.79 867.49L1106.79 881.62Z" id="g7ysJbFQDs"></path><path d="M1044.15 857.9C1044.15 859.76 1045.22 860.3 1048.81 860.3C1049.13 860.3 1050.68 860.3 1053.48 860.3L1053.48 871.09L1053.48 881.75C1055.72 881.52 1056.96 881.38 1057.21 881.36C1060.81 880.96 1060.81 880.82 1061.21 870.56C1061.24 869.88 1061.37 866.45 1061.61 860.3C1063.93 860.3 1065.22 860.3 1065.47 860.3C1068.81 860.3 1069.47 859.76 1069.47 856.97C1069.47 853.63 1069.34 853.63 1057.74 853.63C1051.21 853.63 1045.48 854.03 1045.08 854.57C1044.55 854.97 1044.15 856.57 1044.15 857.9Z" id="bc5k8zXom"></path><path d="M1025.36 854.03L1027.07 854.17L1028.56 854.34L1029.85 854.57L1030.98 854.86L1031.99 855.23L1032.91 855.7L1033.78 856.28L1034.63 856.99L1035.5 857.83L1036.42 858.83L1037.52 860.21L1038.43 861.63L1039.15 863.09L1039.67 864.58L1039.99 866.11L1040.1 867.68L1040.02 869.28L1039.74 870.92L1039.25 872.59L1038.55 874.29L1037.81 875.66L1036.88 876.9L1035.75 877.99L1034.44 878.94L1032.94 879.76L1031.26 880.42L1029.4 880.95L1027.38 881.32L1025.18 881.55L1022.83 881.62L1021.19 881.6L1019.77 881.53L1018.54 881.39L1017.45 881.18L1016.48 880.89L1015.58 880.5L1014.72 880L1013.87 879.39L1012.98 878.64L1012.03 877.76L1011.18 876.87L1010.45 876.02L1009.84 875.19L1009.35 874.37L1008.95 873.53L1008.64 872.64L1008.42 871.7L1008.27 870.67L1008.19 869.54L1008.17 868.29L1008.21 866.36L1008.37 864.62L1008.64 863.07L1009.04 861.67L1009.56 860.41L1010.24 859.28L1011.06 858.26L1012.05 857.32L1013.22 856.45L1014.56 855.63L1015.32 855.26L1016.15 854.93L1017.05 854.65L1018.02 854.42L1019.06 854.23L1020.18 854.1L1021.36 854.01L1022.62 853.97L1023.95 853.98L1025.36 854.03ZM1019.76 860.81L1018.53 861.39L1017.63 862.16L1016.92 863.3L1016.46 864.61L1016.25 866.03L1016.26 867.51L1016.5 869.01L1016.94 870.47L1017.58 871.85L1018.4 873.09L1019.4 874.14L1020.56 874.96L1021.45 875.43L1022.23 875.79L1022.92 876.05L1023.56 876.21L1024.18 876.26L1024.79 876.21L1025.44 876.05L1026.16 875.79L1026.96 875.43L1027.89 874.96L1029.01 874.19L1029.96 873.28L1030.74 872.22L1031.34 871.06L1031.76 869.81L1031.98 868.49L1032 867.12L1031.82 865.73L1031.43 864.34L1030.82 862.96L1030.1 862.08L1029.02 861.37L1027.66 860.83L1026.12 860.46L1024.47 860.26L1022.81 860.26L1021.21 860.44L1019.76 860.81Z" id="bSkqHVYV3"></path><path d="M973.51 881.75C975.75 881.52 977 881.38 977.25 881.36C980.44 880.96 980.84 880.42 980.84 876.29C980.84 871.63 980.84 871.63 987.24 871.23C987.66 871.2 989.75 871.07 993.5 870.83C993.5 874.02 993.5 875.8 993.5 876.16C993.5 881.09 993.77 881.62 996.84 881.62C997.06 881.62 998.17 881.62 1000.17 881.62L1000.17 867.63L1000.17 853.63C998.17 853.63 997.06 853.63 996.84 853.63C993.77 853.63 993.5 854.17 993.5 859.1C993.5 859.45 993.5 861.23 993.5 864.43C989.75 864.19 987.66 864.06 987.24 864.03C981.51 863.63 980.84 863.23 980.58 860.3C980.58 858.43 980.44 856.17 980.31 855.23C980.18 854.43 978.71 853.63 976.85 853.63C976.62 853.63 975.51 853.63 973.51 853.63L973.51 867.76L973.51 881.75Z" id="a2vkKwAUzf"></path><path d="M914.87 863.23C914.87 867.63 916.2 868.43 925.53 870.43C930.33 871.36 932.86 872.56 932.86 873.76C932.86 876.29 925 876.96 922.6 874.56C919.27 871.23 915.01 870.56 913.94 873.09C913.41 874.69 914.21 876.42 916.74 878.56C919.67 880.96 921.94 881.62 927.93 881.62C937.66 881.62 941.53 879.22 941.53 873.09C941.53 867.63 939.79 866.16 932.86 864.96C921.54 863.23 921.14 862.96 922.87 860.96C925 858.43 930.07 858.43 932.73 860.96C933.8 862.03 936.2 862.96 938.06 862.96C940.99 862.96 941.26 862.56 940.33 859.9C939.79 858.3 937.8 856.17 936.06 855.37C932.06 853.23 923.14 853.23 919.54 855.23C915.94 857.23 914.87 858.96 914.87 863.23Z" id="f1m0tmKQt6"></path><path d="M879.69 860.7C877.82 865.9 881.55 869.23 890.88 870.56C895.95 871.36 898.21 872.29 898.21 873.63C898.21 877.09 889.82 876.96 886.08 873.49C882.62 870.16 878.89 870.83 878.89 874.82C878.89 879.22 883.95 881.62 893.15 881.62C902.61 881.62 906.88 878.96 906.88 873.09C906.88 868.69 903.81 865.9 897.81 864.96C888.35 863.36 886.75 862.83 887.28 861.23C888.08 858.7 895.55 858.56 897.55 860.83C899.55 863.36 905.54 863.63 905.54 861.23C905.41 854.83 892.48 851.23 884.22 855.37C882.49 856.3 880.35 858.7 879.69 860.7Z" id="dDye9Jrp"></path><path d="M860.86 853.92L861.54 854.34L862.24 854.99L862.98 855.92L863.79 857.15L864.69 858.72L865.71 860.68L866.88 863.06L868.23 865.9L869.13 867.92L870.02 869.88L870.85 871.76L871.64 873.53L872.36 875.14L872.99 876.58L873.54 877.8L873.98 878.78L874.3 879.49L874.49 879.89L874.57 880.23L874.55 880.53L874.45 880.79L874.26 881.02L873.97 881.21L873.6 881.36L873.13 881.47L872.57 881.56L871.91 881.61L871.16 881.62L870.32 881.6L869.58 881.52L868.93 881.4L868.35 881.22L867.84 880.99L867.41 880.7L867.03 880.35L866.71 879.95L866.45 879.48L866.23 878.96L866 878.36L865.72 877.86L865.36 877.44L864.89 877.1L864.31 876.82L863.59 876.61L862.7 876.46L861.64 876.36L860.38 876.31L858.9 876.29L857.45 876.3L856.22 876.35L855.18 876.44L854.32 876.58L853.61 876.77L853.05 877.04L852.61 877.38L852.27 877.81L852.02 878.33L851.83 878.96L851.65 879.48L851.41 879.95L851.12 880.35L850.77 880.7L850.35 880.99L849.87 881.22L849.31 881.4L848.68 881.52L847.96 881.6L847.17 881.62L843.04 881.62L848.5 869.89L849.38 867.98L850.24 866.11L851.08 864.3L851.87 862.59L852.62 861L853.29 859.56L853.88 858.3L854.38 857.25L854.77 856.44L855.03 855.9L855.3 855.54L855.63 855.2L856.01 854.88L856.43 854.58L856.88 854.32L857.36 854.09L857.87 853.9L858.38 853.75L858.91 853.66L859.43 853.63L860.16 853.7L860.86 853.92ZM858.26 864.64L857.91 865.03L857.55 865.52L857.21 866.09L856.9 866.71L856.63 867.35L856.42 867.98L856.28 868.57L856.23 869.09L856.27 869.17L856.37 869.25L856.53 869.33L856.75 869.4L857.01 869.46L857.32 869.52L857.67 869.56L858.06 869.6L858.46 869.62L858.9 869.63L859.69 869.62L860.33 869.59L860.82 869.52L861.16 869.38L861.38 869.18L861.47 868.88L861.44 868.47L861.31 867.94L861.08 867.26L860.76 866.43L860.63 866.08L860.47 865.75L860.28 865.44L860.09 865.16L859.88 864.91L859.67 864.7L859.46 864.53L859.26 864.4L859.07 864.32L858.9 864.3L858.59 864.39L858.26 864.64Z" id="i1OH6sKO9Q"></path><path d="M817.58 881.62C823.98 881.62 827.53 881.62 828.24 881.62C838.77 881.62 838.9 881.62 838.9 878.29C838.9 875.09 838.5 874.96 831.57 874.96C831.09 874.96 828.64 874.96 824.24 874.96C824.24 868.56 824.24 865.01 824.24 864.3C824.24 853.77 824.24 853.63 820.91 853.63C820.69 853.63 819.58 853.63 817.58 853.63L817.58 867.63L817.58 881.62Z" id="b1d0PJ6zGT"></path><path d="M778.93 868.29C778.93 872.69 779.73 874.69 782.8 877.76C786.13 880.96 787.73 881.62 793.59 881.62C803.19 881.62 809.58 877.89 809.58 872.16C809.58 869.89 802.92 870.96 800.25 873.63C797.06 876.82 793.86 876.96 789.86 874.16C786.53 871.89 785.73 864.7 788.53 861.9C790.92 859.5 800.12 859.9 801.05 862.3C802.12 864.83 809.58 864.96 809.58 862.56C809.58 861.5 808.12 859.36 806.25 857.63C801.99 853.63 790.66 852.57 785.33 855.63C780.53 858.3 778.93 861.5 778.93 868.29Z" id="b5iqoCzFL1"></path><path d="M732.42 870.56C737.48 871.36 739.61 872.29 739.61 873.63C739.61 876.82 731.22 876.96 727.75 873.89C723.89 870.29 720.29 870.56 720.29 874.42C720.29 878.96 725.09 881.62 733.22 881.62C744.81 881.62 749.61 877.89 747.74 870.29C746.94 867.09 741.21 864.3 735.08 864.3C730.68 864.3 727.62 862.43 728.82 860.43C730.15 858.3 736.95 858.7 738.95 860.96C741.08 863.5 746.94 863.63 746.94 861.1C746.94 857.23 740.28 853.63 733.35 853.63C728.15 853.63 726.15 854.3 723.62 856.97C717.09 863.36 720.69 868.96 732.42 870.56Z" id="d6pxlyhdNJ"></path><path d="M685.64 862.96C685.64 867.63 688.17 869.23 697.9 870.69C702.83 871.36 704.96 872.29 704.96 873.63C704.96 876.96 695.77 876.96 692.7 873.76C690.17 870.96 685.5 870.83 684.57 873.36C684.3 874.16 685.64 876.42 687.5 878.29C690.3 881.09 692.03 881.62 698.96 881.62C705.76 881.62 707.63 881.09 710.29 878.29C714.29 874.42 714.42 872.29 711.23 868.29C709.63 866.29 706.83 865.1 701.63 864.56C696.43 863.9 694.3 863.1 694.3 861.63C694.3 858.83 700.83 858.3 703.36 860.83C705.63 863.1 712.29 863.76 712.29 861.76C712.29 861.1 711.23 859.23 709.89 857.63C706.16 853.1 694.3 852.3 689.37 856.3C686.84 858.17 685.64 860.43 685.64 862.96Z" id="b32BLmyd04"></path><path d="M654.05 868.43C654.07 869.26 654.16 873.44 654.32 880.96L666.71 881.36L678.97 881.75C678.97 879.68 678.97 878.52 678.97 878.29C678.97 875.09 678.71 874.96 670.31 874.96C662.58 874.96 661.65 874.69 661.65 872.29C661.65 869.89 662.58 869.63 668.98 869.63C675.37 869.63 676.31 869.36 676.31 866.96C676.31 864.56 675.37 864.3 668.98 864.3C663.38 864.3 661.65 863.9 661.65 862.3C661.65 860.7 663.51 860.3 670.44 860.3C678.71 860.3 679.11 860.16 678.71 857.23C678.31 854.43 677.64 854.3 666.71 853.9C660.45 853.77 654.85 854.03 654.45 854.7C654.05 855.37 653.92 861.5 654.05 868.43Z" id="dadzhEcxe"></path><path d="M616.33 868.56C616.33 869.43 616.33 873.79 616.33 881.62C618.73 881.62 620.06 881.62 620.33 881.62C624.2 881.62 624.2 881.62 624.6 872.96C624.62 872.38 624.76 869.49 625 864.3C628.51 869.49 630.47 872.38 630.86 872.96C636.19 880.69 637.26 881.62 641.26 881.62C641.55 881.62 643.01 881.62 645.65 881.62L645.65 867.63L645.65 853.63C643.65 853.63 642.54 853.63 642.32 853.63C639.12 853.63 638.99 853.9 638.99 862.43C638.99 867.89 638.46 870.83 637.66 870.29C636.86 869.89 633.93 865.9 630.99 861.5C626.46 855.1 624.86 853.63 621.8 853.63C619.8 853.63 617.67 854.03 617.27 854.57C616.73 854.97 616.33 861.36 616.33 868.56Z" id="bbxureT2s"></path><path d="M600.34 868.56C600.34 869.43 600.34 873.79 600.34 881.62L604.34 881.62L608.47 881.62C608.23 873.39 608.1 868.81 608.07 867.89C607.67 855.37 607.4 854.3 605 853.9C603.41 853.63 601.81 853.9 601.27 854.43C600.74 854.97 600.34 861.36 600.34 868.56Z" id="ckjwg6meg"></path><path d="M1076.14 881.62C1083.33 881.62 1087.33 881.62 1088.13 881.62C1099.99 881.62 1100.13 881.62 1100.13 878.29C1100.13 875.09 1099.86 874.96 1091.46 874.96C1083.73 874.96 1082.8 874.69 1082.8 872.29C1082.8 869.89 1083.73 869.63 1090.13 869.63C1096.53 869.63 1097.46 869.36 1097.46 866.96C1097.46 864.56 1096.53 864.3 1090.13 864.3C1084.53 864.3 1082.8 863.9 1082.8 862.3C1082.8 860.7 1084.67 860.3 1091.46 860.3C1099.86 860.3 1100.13 860.16 1100.13 856.97C1100.13 853.63 1099.99 853.63 1088.13 853.63C1087.33 853.63 1083.33 853.63 1076.14 853.63L1076.14 867.63L1076.14 881.62Z" id="b2j7eYPPv7"></path><path d="M528.64 866.56C529.17 874.16 529.7 875.76 532.9 878.42C538.1 882.95 548.5 882.95 553.03 878.29C555.96 875.36 556.36 874.02 556.36 864.3C556.36 853.77 556.36 853.63 553.03 853.63C549.83 853.63 549.69 853.9 549.69 862.83C549.69 872.56 547.83 876.29 543.16 876.29C538.1 876.29 536.5 873.36 536.1 863.63C535.7 855.1 535.43 854.3 532.64 853.9C530.9 853.63 529.3 854.3 528.9 855.63C528.37 856.7 528.37 861.63 528.64 866.56Z" id="b5aYzVJSdj"></path><path d="M506.84 854L508.69 854.15L510.45 854.33L512.08 854.54L513.58 854.78L514.91 855.04L516.07 855.32L517.02 855.6L517.75 855.88L518.24 856.17L518.9 856.86L519.44 857.72L519.85 858.7L520.14 859.74L520.29 860.81L520.31 861.87L520.2 862.85L519.96 863.73L519.57 864.45L519.04 864.96L518.8 865.15L518.62 865.38L518.52 865.65L518.49 865.97L518.52 866.33L518.63 866.73L518.8 867.17L519.04 867.64L519.34 868.15L519.71 868.69L520.42 869.83L520.97 870.94L521.34 872.01L521.55 873.05L521.57 874.07L521.43 875.08L521.1 876.06L520.59 877.03L519.91 878L519.04 878.96L518.36 879.58L517.64 880.1L516.83 880.53L515.9 880.87L514.79 881.14L513.47 881.34L511.87 881.47L509.97 881.56L507.71 881.61L505.05 881.62L493.72 881.62L493.72 853.23L504.91 853.9L506.84 854ZM504.05 869.71L503.45 869.82L502.95 869.99L502.55 870.21L502.23 870.49L502 870.83L501.84 871.25L501.74 871.73L501.72 872.29L501.75 872.92L501.85 873.44L502.05 873.87L502.37 874.21L502.81 874.47L503.41 874.67L504.18 874.81L505.14 874.9L506.31 874.94L507.71 874.96L508.92 874.94L509.97 874.89L510.89 874.81L511.67 874.68L512.31 874.52L512.83 874.32L513.22 874.08L513.5 873.8L513.66 873.47L513.71 873.09L513.68 872.77L513.6 872.44L513.48 872.12L513.31 871.81L513.09 871.51L512.85 871.23L512.57 870.98L512.26 870.75L511.93 870.57L511.58 870.43L511.18 870.31L510.7 870.19L510.16 870.08L509.56 869.97L508.93 869.88L508.27 869.79L507.59 869.72L506.91 869.67L506.23 869.64L505.58 869.63L504.76 869.65L504.05 869.71ZM505.01 860.36L504.19 860.45L503.5 860.58L502.93 860.75L502.48 860.96L502.14 861.22L501.9 861.53L501.76 861.88L501.72 862.3L501.76 862.71L501.9 863.07L502.14 863.37L502.48 863.63L502.93 863.85L503.5 864.01L504.19 864.14L505.01 864.23L505.96 864.28L507.05 864.3L508.13 864.28L509.09 864.23L509.9 864.14L510.59 864.01L511.16 863.85L511.61 863.63L511.96 863.37L512.19 863.07L512.33 862.71L512.38 862.3L512.33 861.88L512.19 861.53L511.96 861.22L511.61 860.96L511.16 860.75L510.59 860.58L509.9 860.45L509.09 860.36L508.13 860.31L507.05 860.3L505.96 860.31L505.01 860.36Z" id="f43pw5dLZJ"></path><path d="M1400 734.62C1400.53 735.19 1403.2 738.03 1407.99 743.15C1407.99 765.3 1407.99 777.6 1407.99 780.07C1407.99 805.25 1407.33 819.65 1406.13 825.25C1406.01 825.81 1405.44 828.6 1404.4 833.64L1423.05 833.64L1441.58 833.64C1441.1 831.8 1440.83 830.78 1440.78 830.58C1437.85 820.71 1436.12 777 1438.65 777.93C1440.51 778.6 1472.9 822.31 1475.97 828.44C1476.14 828.79 1477.03 830.52 1478.63 833.64C1489.43 833.64 1495.42 833.64 1496.62 833.64C1514.62 833.64 1514.62 833.64 1513.95 830.58C1513.55 828.98 1512.75 824.98 1511.95 821.65C1511.28 818.32 1510.62 798.86 1510.62 778.33C1510.62 745.41 1511.28 735.82 1514.08 726.62C1514.75 724.49 1513.28 724.36 1496.09 724.36C1475.7 724.36 1476.23 724.09 1478.63 732.22C1479.96 736.75 1480.9 783.93 1479.56 785.13C1478.9 785.8 1447.98 745.01 1439.31 731.82C1438.98 731.32 1437.29 728.83 1434.25 724.36C1421.62 724.36 1414.6 724.36 1413.19 724.36C1401.46 724.36 1392 724.76 1392 725.16C1392 725.69 1395.6 729.82 1400 734.62Z" id="b7J3eyPXm"></path><path d="M1346.31 731.67L1349.88 739.7L1355.02 750.98L1361.25 764.43L1368.04 778.98L1374.91 793.56L1381.35 807.1L1386.86 818.51L1390.93 826.74L1393.07 830.71L1395.07 833.78L1358.55 832.98L1355.48 824.31L1354.98 822.85L1354.44 821.34L1353.88 819.83L1353.3 818.33L1352.72 816.88L1352.14 815.5L1351.59 814.22L1351.06 813.07L1350.58 812.07L1350.15 811.25L1347.89 806.99L1310.84 806.99L1306.84 817.65L1306.17 819.37L1305.54 821.08L1304.95 822.75L1304.4 824.36L1303.92 825.86L1303.51 827.24L1303.17 828.48L1302.92 829.53L1302.76 830.37L1302.71 830.98L1302.67 831.67L1302.48 832.23L1302.07 832.67L1301.32 833.01L1300.14 833.26L1298.45 833.43L1296.14 833.55L1293.12 833.61L1289.3 833.64L1284.58 833.64L1266.59 833.64L1270.05 827.91L1270.64 826.92L1271.28 825.8L1271.96 824.59L1272.66 823.31L1273.37 821.98L1274.07 820.64L1274.76 819.31L1275.42 818.01L1276.03 816.78L1276.58 815.65L1277.34 814.02L1278.54 811.43L1280.13 807.99L1282.07 803.79L1284.31 798.92L1286.81 793.5L1289.52 787.62L1292.39 781.38L1295.38 774.87L1298.44 768.2L1301.5 761.57L1304.4 755.22L1307.11 749.27L1309.59 743.79L1311.8 738.87L1313.7 734.6L1315.24 731.07L1316.4 728.37L1317.12 726.59L1317.37 725.82L1317.5 725.55L1317.9 725.31L1318.56 725.09L1319.49 724.9L1320.68 724.74L1322.15 724.6L1323.88 724.5L1325.88 724.42L1328.15 724.37L1330.69 724.36L1344.02 724.36L1344.82 727.95L1346.31 731.67ZM1328.85 758.42L1328.41 759.3L1327.87 760.49L1327.25 761.96L1326.54 763.66L1325.77 765.58L1324.96 767.69L1324.1 769.95L1323.23 772.34L1317.63 787L1341.09 787L1335.49 772.34L1334.62 769.98L1333.77 767.74L1332.95 765.64L1332.18 763.72L1331.48 762.01L1330.85 760.53L1330.31 759.33L1329.87 758.43L1329.55 757.87L1329.36 757.67L1329.17 757.87L1328.85 758.42Z" id="aEdqrgDrV"></path><path d="M1153.7 733.68C1156.5 737.68 1162.23 749.94 1166.5 761.01C1170.9 771.94 1179.03 792.86 1184.76 807.39C1185.44 809.15 1188.86 817.94 1195.02 833.78L1209.01 833.38L1222.87 832.98C1235.19 804.35 1242.03 788.44 1243.4 785.26C1254.73 759.01 1265.79 734.88 1268.05 731.69C1270.19 728.49 1272.05 725.56 1272.05 725.16C1272.05 724.76 1263.66 724.36 1253.39 724.36C1252.15 724.36 1245.93 724.36 1234.74 724.36C1234.74 726.83 1234.74 728.21 1234.74 728.49C1234.74 731.55 1221.94 767.27 1211.81 792.33C1210.61 795.26 1209.28 792.06 1200.48 766.34C1195.02 750.21 1190.35 734.35 1190.09 731.02C1190.06 730.62 1189.93 728.62 1189.69 725.02C1177.13 724.78 1170.16 724.65 1168.76 724.62C1157.3 724.49 1148.11 724.76 1148.37 725.29C1148.51 725.95 1151.04 729.69 1153.7 733.68Z" id="b2yodB5yJ"></path><path d="M1103.06 725.02L1105.46 731.69L1107.43 736.4L1111.28 744.94L1116.53 756.28L1122.69 769.43L1129.3 783.38L1135.87 797.14L1141.92 809.7L1146.99 820.06L1150.59 827.22L1152.24 830.18L1152.91 830.99L1153.22 831.66L1153.1 832.22L1152.5 832.66L1151.35 833.01L1149.62 833.27L1147.23 833.45L1144.13 833.56L1140.26 833.62L1135.58 833.64L1117.72 833.64L1116.79 829.91L1116.61 829.2L1116.34 828.27L1115.97 827.16L1115.53 825.89L1115.02 824.5L1114.45 823L1113.84 821.43L1113.2 819.82L1112.53 818.2L1111.85 816.58L1107.86 806.99L1070.14 806.99L1066.54 816.58L1065.94 818.2L1065.35 819.82L1064.78 821.43L1064.24 823L1063.72 824.5L1063.26 825.89L1062.84 827.16L1062.49 828.27L1062.21 829.2L1062.01 829.91L1061.21 833.64L1025.49 833.64L1028.82 828.58L1029.87 826.68L1031.73 822.97L1034.41 817.45L1037.91 810.11L1042.22 800.96L1047.34 789.99L1053.28 777.2L1060.04 762.6L1067.61 746.18L1076 727.95L1077.34 724.22L1090.13 724.62L1103.06 725.02ZM1088.34 758.01L1088.14 758.25L1087.93 758.57L1087.7 758.97L1087.46 759.43L1087.21 759.95L1086.94 760.52L1086.67 761.14L1085.6 763.94L1084.43 767.05L1083.21 770.33L1081.99 773.64L1080.82 776.85L1079.75 779.81L1078.83 782.39L1078.11 784.46L1077.64 785.86L1077.47 786.46L1077.62 786.54L1078.05 786.62L1078.73 786.7L1079.65 786.77L1080.78 786.83L1082.1 786.88L1083.59 786.93L1085.21 786.97L1086.96 786.99L1088.8 787L1090.64 786.99L1092.38 786.98L1094.01 786.96L1095.49 786.93L1096.81 786.9L1097.94 786.85L1098.86 786.8L1099.55 786.74L1099.98 786.67L1100.13 786.6L1100.06 786.34L1099.85 785.74L1099.53 784.83L1099.09 783.65L1098.54 782.21L1097.91 780.56L1097.19 778.72L1096.41 776.71L1095.56 774.57L1094.66 772.34L1093.79 770.06L1092.95 767.89L1092.15 765.86L1091.41 764L1090.73 762.32L1090.13 760.87L1089.63 759.66L1089.23 758.73L1088.95 758.1L1088.8 757.81L1088.67 757.78L1088.51 757.85L1088.34 758.01Z" id="aepCjUM07"></path><path d="M916.2 779C916.2 808.72 915.54 819.51 912.87 829.91C912.81 830.16 912.5 831.4 911.94 833.64L931.53 833.64L950.99 833.64C950.43 831.8 950.12 830.78 950.06 830.58C947.66 822.98 946.86 817.25 946.86 803.92C946.86 802.97 946.86 798.22 946.86 789.66L964.85 789.66L982.84 789.66C982.84 799.1 982.84 804.34 982.84 805.39C982.84 815.12 982.18 823.65 980.98 827.38C980.85 827.8 980.23 829.88 979.11 833.64L998.84 833.64L1018.56 833.64C1017.44 829.88 1016.82 827.8 1016.69 827.38C1013.9 818.18 1014.03 740.75 1016.83 731.55C1017.89 727.95 1018.83 724.89 1018.83 724.62C1018.83 724.49 1010.03 724.36 999.37 724.36C998.07 724.36 991.59 724.36 979.91 724.36C980.47 726.51 980.78 727.71 980.84 727.95C981.24 730.09 982.04 739.68 982.44 749.28C982.49 750.46 982.71 756.37 983.11 767L964.98 767L946.86 767C946.86 759.57 946.86 755.44 946.86 754.61C946.99 743.15 947.66 737.15 950.19 727.95C950.25 727.71 950.56 726.51 951.12 724.36L931.53 724.36L911.94 724.36L912.87 727.95C915.09 742.17 916.2 759.19 916.2 779Z" id="a1GA2EbZUn"></path><path d="M835.3 724.92L840.42 725.11L845.07 725.32L849.27 725.55L853.02 725.81L856.33 726.09L859.21 726.4L861.69 726.75L863.75 727.13L865.43 727.55L871.99 729.97L877.51 733.14L881.94 736.92L885.25 741.2L887.38 745.83L888.31 750.69L887.99 755.65L886.39 760.57L883.45 765.33L879.15 769.8L873.69 774.47L880.62 779.13L883.23 780.98L885.54 782.93L887.55 784.99L889.28 787.17L890.73 789.48L891.9 791.91L892.81 794.49L893.44 797.21L893.82 800.09L893.95 803.12L893.8 806.48L893.34 809.61L892.56 812.52L891.44 815.23L889.98 817.77L888.16 820.14L885.97 822.36L883.39 824.45L880.41 826.43L877.02 828.31L867.83 832.98L834.51 833.38L825.83 833.51L818.82 833.6L813.29 833.63L809.08 833.59L806.02 833.48L803.94 833.27L802.68 832.97L802.07 832.56L801.94 832.03L802.12 831.38L802.83 829.23L803.45 826.58L803.99 823.34L804.43 819.46L804.8 814.85L805.09 809.44L805.32 803.16L805.47 795.93L805.56 787.68L805.59 778.33L805.53 771.83L805.41 765.65L805.23 759.79L804.99 754.26L804.69 749.05L804.32 744.16L803.9 739.59L803.41 735.34L802.86 731.42L802.25 727.82L801.19 723.96L829.71 724.76L835.3 724.92ZM839.97 814.98L843.03 814.78L846.02 814.21L848.87 813.3L851.53 812.09L853.95 810.64L856.05 808.97L857.79 807.13L859.11 805.16L859.94 803.1L860.23 800.99L860.15 799.58L859.92 798.18L859.56 796.79L859.06 795.43L858.45 794.13L857.72 792.88L856.9 791.72L856 790.65L855.01 789.69L853.96 788.86L853.32 788.53L852.54 788.2L851.62 787.86L850.6 787.53L849.5 787.21L848.33 786.91L847.12 786.64L845.89 786.4L844.65 786.21L843.44 786.06L836.24 785.26L836.24 814.98L839.97 814.98ZM836.51 755.28L836.62 758.44L836.74 761.02L836.87 763.08L837.04 764.67L837.27 765.87L837.57 766.73L837.96 767.32L838.45 767.7L839.07 767.93L839.84 768.07L840.39 768.11L841.06 768.09L841.84 768L842.7 767.86L843.64 767.65L844.62 767.4L845.63 767.1L846.64 766.75L847.65 766.36L848.63 765.94L851.5 764.4L853.79 762.6L855.5 760.61L856.61 758.48L857.13 756.26L857.05 754L856.36 751.76L855.07 749.59L853.16 747.55L850.63 745.68L849.86 745.25L849 744.84L848.06 744.46L847.07 744.11L846.05 743.8L845.02 743.53L843.99 743.31L843 743.15L842.05 743.05L841.17 743.01L836.11 743.01L836.51 755.28Z" id="b5zXVvL1B"></path><path d="M686.84 818.32C686.3 822.71 685.5 827.91 684.97 829.91C684.91 830.16 684.6 831.4 684.04 833.64L703.23 833.64L722.55 833.64C721.51 828.6 720.94 825.81 720.82 825.25C717.36 809.39 718.56 736.22 722.29 726.62C723.22 724.49 721.75 724.36 703.63 724.36C702.32 724.36 695.79 724.36 684.04 724.36L684.97 727.95C686.92 781.44 687.55 811.56 686.84 818.32Z" id="aIvkz9MFT"></path><path d="M558.62 776.33C559.02 810.32 558.76 821.11 557.29 826.58C557.17 827.05 556.55 829.4 555.43 833.64L575.15 833.64L594.88 833.64C593.76 830.36 593.13 828.54 593.01 828.18C591.68 824.45 591.01 817.12 591.01 806.19C591.01 805.09 591.01 799.58 591.01 789.66L609 789.66L627 789.66C627 797.18 627 801.35 627 802.19C627 813.25 625.66 824.58 623.53 831.24C622.86 833.51 624.33 833.64 642.32 833.64C660.45 833.64 661.91 833.51 660.98 831.24C658.71 825.38 657.65 810.45 657.65 779.67C657.65 749.28 658.32 738.48 660.98 727.95C661.04 727.71 661.35 726.51 661.91 724.36L642.32 724.36L622.73 724.36C623.29 726.51 623.6 727.71 623.66 727.95C626.2 737.15 626.86 743.15 627 754.61C627 755.44 627 759.57 627 767L609 767L591.01 767C591.01 758.37 591.01 753.57 591.01 752.61C591.01 743.55 591.81 735.68 593.01 731.55C594.08 727.95 595.01 724.89 595.01 724.62C595.01 724.49 586.21 724.36 575.55 724.36C574.25 724.36 567.77 724.36 556.09 724.36L557.03 728.62C557.82 744.52 558.36 760.43 558.62 776.33Z" id="a7diO1fZHQ"></path><path d="M446.01 747.81C446.27 747.95 452.14 747.28 459.07 746.21C466 745.28 473.73 744.35 476.13 744.35C476.42 744.35 477.89 744.35 480.52 744.35C480.2 768.9 480.03 782.54 479.99 785.26C479.72 807.92 478.93 827.91 478.39 829.91C478.33 830.16 478.02 831.4 477.46 833.64L497.05 833.64L516.51 833.64C515.95 831.8 515.64 830.78 515.58 830.58C512.91 822.18 512.38 815.38 512.38 781.26C512.38 778.8 512.38 766.5 512.38 744.35C515.1 744.35 516.61 744.35 516.91 744.35C521.17 744.35 533.3 746.35 537.97 747.81C539.7 748.35 540.77 746.35 543.56 738.08C545.43 732.35 547.03 726.89 547.03 725.95C547.03 724.76 536.77 724.36 500.52 724.36C472.79 724.36 453.6 724.89 453.07 725.56C451.87 727.55 445.61 747.28 446.01 747.81Z" id="abTmEmgpq"></path><path d="M321.79 735.02C322.33 735.62 324.99 738.64 329.79 744.08C329.79 764.31 329.79 775.55 329.79 777.8C329.79 808.45 328.72 825.38 326.32 831.51C325.52 833.38 327.39 833.64 344.45 833.64C361.24 833.64 363.24 833.38 362.57 831.51C360.44 825.78 359.11 809.92 359.38 793.93C359.4 792.74 359.54 786.84 359.78 776.2C369.53 789.23 374.95 796.48 376.04 797.92C384.83 809.92 394.16 822.85 396.56 826.58C396.84 827.05 398.27 829.4 400.83 833.64L418.42 833.64L436.01 833.64C434.89 828.68 434.27 825.93 434.14 825.38C432.68 818.85 432.41 808.32 432.81 774.47C433.08 750.88 433.88 730.09 434.41 727.95C434.47 727.71 434.78 726.51 435.34 724.36C424.63 724.36 418.68 724.36 417.48 724.36C407.62 724.36 399.23 724.62 398.83 725.02C398.43 725.42 398.96 728.89 400.03 732.75C401.23 737.68 401.76 746.61 401.49 763.41C401.46 764.98 401.33 772.84 401.09 787C390.14 772.2 384.05 763.98 382.83 762.34C372.7 748.75 362.57 734.75 360.18 731.02C359.88 730.58 358.42 728.35 355.78 724.36C343.22 724.36 336.25 724.36 334.85 724.36C323.26 724.36 313.8 724.76 313.8 725.16C313.8 725.69 317.39 730.09 321.79 735.02Z" id="a1R845o9Iw"></path><path d="M257.42 724.4L259.47 724.47L261.12 724.58L262.42 724.74L263.41 724.96L264.15 725.25L264.68 725.62L265.04 726.07L265.28 726.62L266.48 729.45L269.15 735.36L272.99 743.69L277.69 753.81L282.96 765.07L288.49 776.83L293.97 788.43L299.11 799.25L303.6 808.62L307.13 815.92L315.79 833.64L279.68 833.64L278.21 827.91L277.89 826.91L277.51 825.76L277.06 824.49L276.56 823.12L276.03 821.7L275.47 820.23L274.89 818.76L274.3 817.31L273.72 815.91L273.15 814.58L269.55 806.85L231.96 807.65L228.37 816.98L227.78 818.52L227.21 820.08L226.68 821.63L226.19 823.15L225.75 824.6L225.37 825.95L225.06 827.19L224.83 828.28L224.68 829.2L224.63 829.91L224.5 833.64L206.51 833.64L203.61 833.63L200.85 833.6L198.27 833.55L195.91 833.48L193.81 833.39L192.01 833.3L190.54 833.19L189.44 833.08L188.75 832.96L188.52 832.84L188.55 832.67L188.65 832.41L188.81 832.07L189.03 831.65L189.3 831.18L189.61 830.65L189.96 830.1L190.34 829.51L190.75 828.91L191.18 828.31L193.1 824.73L196.95 816.93L202.22 805.95L208.44 792.83L215.12 778.6L221.77 764.31L227.91 750.99L233.05 739.69L236.69 731.44L238.36 727.29L238.65 726.53L238.99 725.91L239.47 725.42L240.13 725.05L241.06 724.77L242.31 724.58L243.96 724.46L246.08 724.39L248.72 724.36L251.96 724.36L254.93 724.37L257.42 724.4ZM250.12 759.68L249.56 760.71L248.91 762.02L248.18 763.6L247.39 765.4L246.55 767.41L245.67 769.6L244.76 771.94L239.43 786.33L250.09 786.73L251.82 786.8L253.49 786.84L255.07 786.86L256.53 786.87L257.85 786.85L259 786.81L259.96 786.75L260.7 786.67L261.19 786.57L261.42 786.46L261.47 786.18L261.38 785.57L261.18 784.68L260.86 783.53L260.44 782.15L259.92 780.56L259.33 778.8L258.66 776.89L257.93 774.86L257.15 772.73L256.32 770.6L255.51 768.55L254.72 766.61L253.99 764.81L253.3 763.17L252.69 761.74L252.16 760.53L251.72 759.59L251.38 758.94L251.16 758.61L250.93 758.6L250.58 758.97L250.12 759.68Z" id="cOaYzeQ74"></path><path d="M132.81 728.89C121.08 734.88 115.75 744.08 116.81 757.14C117.61 766.6 122.01 772.87 135.47 783.66C147.87 793.53 151.2 797.79 151.2 803.92C151.2 809.52 146 813.65 139.07 813.65C133.61 813.65 129.34 812.18 121.61 807.39C118.81 805.65 116.28 804.32 115.88 804.32C115.48 804.32 115.21 810.19 115.21 817.52C115.21 818.39 115.21 822.74 115.21 830.58C119.05 831.7 121.18 832.32 121.61 832.44C125.34 833.51 134.14 834.31 143.2 834.31C157.33 834.31 159.2 834.04 166.13 830.58C190.38 818.72 191.58 793.26 168.92 774.07C149.87 757.94 147.47 754.21 152.26 748.35C155.86 743.95 164.79 744.08 173.86 748.75C174.3 748.98 176.52 750.13 180.52 752.21L180.52 739.68L180.52 727.15C177.56 726.27 175.92 725.79 175.59 725.69C168.39 723.69 151.47 722.89 145.07 724.36C142 725.02 136.54 727.02 132.81 728.89Z" id="b1ubTmTwk"></path></defs><g visibility="inherit"><g visibility="inherit"><use xlink:href="#i3Qu8WX7Nm" opacity="1" fill="#000000" fill-opacity="1"></use><g><use xlink:href="#i3Qu8WX7Nm" opacity="1" fill-opacity="0" stroke="#000000" stroke-width="1" stroke-opacity="0"></use></g></g><g visibility="inherit"><use xlink:href="#g7ysJbFQDs" opacity="1" fill="#000000" fill-opacity="1"></use><g><use xlink:href="#g7ysJbFQDs" opacity="1" fill-opacity="0" stroke="#000000" stroke-width="1" stroke-opacity="0"></use></g></g><g visibility="inherit"><use xlink:href="#bc5k8zXom" opacity="1" fill="#000000" fill-opacity="1"></use><g><use xlink:href="#bc5k8zXom" opacity="1" fill-opacity="0" stroke="#000000" stroke-width="1" stroke-opacity="0"></use></g></g><g visibility="inherit"><use xlink:href="#bSkqHVYV3" opacity="1" fill="#000000" fill-opacity="1"></use><g><use xlink:href="#bSkqHVYV3" opacity="1" fill-opacity="0" stroke="#000000" stroke-width="1" stroke-opacity="0"></use></g></g><g visibility="inherit"><use xlink:href="#a2vkKwAUzf" opacity="1" fill="#000000" fill-opacity="1"></use><g><use xlink:href="#a2vkKwAUzf" opacity="1" fill-opacity="0" stroke="#000000" stroke-width="1" stroke-opacity="0"></use></g></g><g visibility="inherit"><use xlink:href="#f1m0tmKQt6" opacity="1" fill="#000000" fill-opacity="1"></use><g><use xlink:href="#f1m0tmKQt6" opacity="1" fill-opacity="0" stroke="#000000" stroke-width="1" stroke-opacity="0"></use></g></g><g visibility="inherit"><use xlink:href="#dDye9Jrp" opacity="1" fill="#000000" fill-opacity="1"></use><g><use xlink:href="#dDye9Jrp" opacity="1" fill-opacity="0" stroke="#000000" stroke-width="1" stroke-opacity="0"></use></g></g><g visibility="inherit"><use xlink:href="#i1OH6sKO9Q" opacity="1" fill="#000000" fill-opacity="1"></use><g><use xlink:href="#i1OH6sKO9Q" opacity="1" fill-opacity="0" stroke="#000000" stroke-width="1" stroke-opacity="0"></use></g></g><g visibility="inherit"><use xlink:href="#b1d0PJ6zGT" opacity="1" fill="#000000" fill-opacity="1"></use><g><use xlink:href="#b1d0PJ6zGT" opacity="1" fill-opacity="0" stroke="#000000" stroke-width="1" stroke-opacity="0"></use></g></g><g visibility="inherit"><use xlink:href="#b5iqoCzFL1" opacity="1" fill="#000000" fill-opacity="1"></use><g><use xlink:href="#b5iqoCzFL1" opacity="1" fill-opacity="0" stroke="#000000" stroke-width="1" stroke-opacity="0"></use></g></g><g visibility="inherit"><use xlink:href="#d6pxlyhdNJ" opacity="1" fill="#000000" fill-opacity="1"></use><g><use xlink:href="#d6pxlyhdNJ" opacity="1" fill-opacity="0" stroke="#000000" stroke-width="1" stroke-opacity="0"></use></g></g><g visibility="inherit"><use xlink:href="#b32BLmyd04" opacity="1" fill="#000000" fill-opacity="1"></use><g><use xlink:href="#b32BLmyd04" opacity="1" fill-opacity="0" stroke="#000000" stroke-width="1" stroke-opacity="0"></use></g></g><g visibility="inherit"><use xlink:href="#dadzhEcxe" opacity="1" fill="#000000" fill-opacity="1"></use><g><use xlink:href="#dadzhEcxe" opacity="1" fill-opacity="0" stroke="#000000" stroke-width="1" stroke-opacity="0"></use></g></g><g visibility="inherit"><use xlink:href="#bbxureT2s" opacity="1" fill="#000000" fill-opacity="1"></use><g><use xlink:href="#bbxureT2s" opacity="1" fill-opacity="0" stroke="#000000" stroke-width="1" stroke-opacity="0"></use></g></g><g visibility="inherit"><use xlink:href="#ckjwg6meg" opacity="1" fill="#000000" fill-opacity="1"></use><g><use xlink:href="#ckjwg6meg" opacity="1" fill-opacity="0" stroke="#000000" stroke-width="1" stroke-opacity="0"></use></g></g><g visibility="inherit"><use xlink:href="#b2j7eYPPv7" opacity="1" fill="#000000" fill-opacity="1"></use><g><use xlink:href="#b2j7eYPPv7" opacity="1" fill-opacity="0" stroke="#000000" stroke-width="1" stroke-opacity="0"></use></g></g><g visibility="inherit"><use xlink:href="#b5aYzVJSdj" opacity="1" fill="#000000" fill-opacity="1"></use><g><use xlink:href="#b5aYzVJSdj" opacity="1" fill-opacity="0" stroke="#000000" stroke-width="1" stroke-opacity="0"></use></g></g><g visibility="inherit"><use xlink:href="#f43pw5dLZJ" opacity="1" fill="#000000" fill-opacity="1"></use><g><use xlink:href="#f43pw5dLZJ" opacity="1" fill-opacity="0" stroke="#000000" stroke-width="1" stroke-opacity="0"></use></g></g><g visibility="inherit"><use xlink:href="#b7J3eyPXm" opacity="1" fill="#000000" fill-opacity="1"></use><g><use xlink:href="#b7J3eyPXm" opacity="1" fill-opacity="0" stroke="#000000" stroke-width="1" stroke-opacity="0"></use></g></g><g visibility="inherit"><use xlink:href="#aEdqrgDrV" opacity="1" fill="#000000" fill-opacity="1"></use><g><use xlink:href="#aEdqrgDrV" opacity="1" fill-opacity="0" stroke="#000000" stroke-width="1" stroke-opacity="0"></use></g></g><g visibility="inherit"><use xlink:href="#b2yodB5yJ" opacity="1" fill="#000000" fill-opacity="1"></use><g><use xlink:href="#b2yodB5yJ" opacity="1" fill-opacity="0" stroke="#000000" stroke-width="1" stroke-opacity="0"></use></g></g><g visibility="inherit"><use xlink:href="#aepCjUM07" opacity="1" fill="#000000" fill-opacity="1"></use><g><use xlink:href="#aepCjUM07" opacity="1" fill-opacity="0" stroke="#000000" stroke-width="1" stroke-opacity="0"></use></g></g><g visibility="inherit"><use xlink:href="#a1GA2EbZUn" opacity="1" fill="#000000" fill-opacity="1"></use><g><use xlink:href="#a1GA2EbZUn" opacity="1" fill-opacity="0" stroke="#000000" stroke-width="1" stroke-opacity="0"></use></g></g><g visibility="inherit"><use xlink:href="#b5zXVvL1B" opacity="1" fill="#000000" fill-opacity="1"></use><g><use xlink:href="#b5zXVvL1B" opacity="1" fill-opacity="0" stroke="#000000" stroke-width="1" stroke-opacity="0"></use></g></g><g visibility="inherit"><use xlink:href="#aIvkz9MFT" opacity="1" fill="#000000" fill-opacity="1"></use><g><use xlink:href="#aIvkz9MFT" opacity="1" fill-opacity="0" stroke="#000000" stroke-width="1" stroke-opacity="0"></use></g></g><g visibility="inherit"><use xlink:href="#a7diO1fZHQ" opacity="1" fill="#000000" fill-opacity="1"></use><g><use xlink:href="#a7diO1fZHQ" opacity="1" fill-opacity="0" stroke="#000000" stroke-width="1" stroke-opacity="0"></use></g></g><g visibility="inherit"><use xlink:href="#abTmEmgpq" opacity="1" fill="#000000" fill-opacity="1"></use><g><use xlink:href="#abTmEmgpq" opacity="1" fill-opacity="0" stroke="#000000" stroke-width="1" stroke-opacity="0"></use></g></g><g visibility="inherit"><use xlink:href="#a1R845o9Iw" opacity="1" fill="#000000" fill-opacity="1"></use><g><use xlink:href="#a1R845o9Iw" opacity="1" fill-opacity="0" stroke="#000000" stroke-width="1" stroke-opacity="0"></use></g></g><g visibility="inherit"><use xlink:href="#cOaYzeQ74" opacity="1" fill="#000000" fill-opacity="1"></use><g><use xlink:href="#cOaYzeQ74" opacity="1" fill-opacity="0" stroke="#000000" stroke-width="1" stroke-opacity="0"></use></g></g><g visibility="inherit"><use xlink:href="#b1ubTmTwk" opacity="1" fill="#000000" fill-opacity="1"></use><g><use xlink:href="#b1ubTmTwk" opacity="1" fill-opacity="0" stroke="#000000" stroke-width="1" stroke-opacity="0"></use></g></g></g></svg>